<?xml version="1.0" encoding="UTF-8"?>
<svg id="_Слой_1" data-name=" Слой 1" xmlns="http://www.w3.org/2000/svg" viewBox="0 0 30 30">
  <defs>
    <style>
      .cls-1 {
        fill: #fff;
        stroke-width: 0px;
      }
    </style>
  </defs>
  <path class="cls-1" d="m14.64,29.92c-.66-.14-1.27-.38-1.75-.86-.6-.6-.92-1.31-.94-2.18h6.09c0,.74-.23,1.36-.69,1.91-.48.58-1.08.94-1.83,1.07-.06,0-.12.04-.16.06h-.73.01Z"/>
  <path class="cls-1" d="m14.98,25.33H5.04c-1.04,0-1.76-.76-1.6-1.76.06-.32.25-.65.46-.88.55-.61,1.15-1.17,1.74-1.75.14-.14.2-.28.2-.47v-7.42c0-2,.42-3.88,1.43-5.62,1.19-2.02,2.92-3.33,5.18-3.94.2-.06.27-.13.27-.34,0-.41-.02-.83.05-1.23.21-1.17,1.27-1.94,2.5-1.82,1.09.09,1.98,1.07,2.02,2.19v.9c0,.15.04.23.2.27,3.77,1.07,5.76,3.71,6.48,7.42.15.77.19,1.57.19,2.37.02,2.41,0,4.8,0,7.21,0,.2.05.34.19.47.55.54,1.09,1.09,1.64,1.64.59.59.75,1.19.47,1.82-.31.69-.87.95-1.6.95h-9.88.01Z"/>
</svg>